<?xml version="1.0" encoding="utf-8"?>
<!-- Generator: Adobe Illustrator 16.0.0, SVG Export Plug-In . SVG Version: 6.00 Build 0)  -->
<!DOCTYPE svg PUBLIC "-//W3C//DTD SVG 1.1//EN" "http://www.w3.org/Graphics/SVG/1.1/DTD/svg11.dtd">
<svg version="1.1" id="Layer_1" xmlns="http://www.w3.org/2000/svg" xmlns:xlink="http://www.w3.org/1999/xlink" x="0px" y="0px"
	 width="38.667px" height="72px" viewBox="0 0 38.667 72" enable-background="new 0 0 38.667 72" xml:space="preserve">
<path fill="#010101" d="M19.097,36.179c0.134,0,0.268,0,0.402,0c0.693,0,1.375-0.021,2.041-0.063
	c0.509-0.029,0.859,0.339,0.78,0.846l-2.625,16.763c-0.081,0.507-0.356,1.269-0.62,1.711l-1.432,2.377
	c-0.262,0.438-0.585,0.396-0.727-0.098l-0.773-2.756c-0.138-0.494-0.184-1.299-0.107-1.807l2.515-16.069
	C18.632,36.581,18.875,36.17,19.097,36.179z M26.339,17.257c5.837,1.297,9.903,4.193,9.903,7.556c0,0.119-0.008,0.235-0.016,0.348
	c-0.008,0.05-0.01,0.105-0.02,0.153c-0.004,0.044-0.012,0.086-0.02,0.132c-0.009,0.069-0.021,0.136-0.035,0.205
	c-0.021,0.115-0.068,0.36-0.09,0.55c-0.027,0.185-0.045,0.342-0.045,0.342l-0.496,3.767l-4.365,33.227
	c-0.064,0.505-0.106,1.342-0.266,1.83c-0.879,2.719-5.645,4.792-11.392,4.792c-5.746,0-10.513-2.073-11.396-4.792
	c-0.157-0.488-0.199-1.325-0.265-1.834L3.474,30.306l-0.496-3.763c0,0-0.02-0.168-0.042-0.342c-0.027-0.189-0.069-0.435-0.094-0.55
	c-0.013-0.071-0.024-0.14-0.034-0.208c-0.01-0.042-0.018-0.084-0.021-0.128c-0.007-0.048-0.011-0.104-0.017-0.153
	c-0.01-0.113-0.017-0.229-0.017-0.348c0-4.307,6.661-7.847,15.169-8.239c0.509-0.021,0.861,0.378,0.783,0.886l-0.296,1.891
	c-0.076,0.505-0.559,0.93-1.068,0.964c-3.062,0.222-5.91,0.913-8.044,1.964c-2.069,1.026-2.842,2.1-2.842,2.534
	c0,0.004,0.003,0.016,0.003,0.039c0.004,0.022,0.011,0.053,0.021,0.091l0.019,0.073c0.113,0.324,0.477,0.806,1.173,1.341
	c0.419,0.32,0.954,0.661,1.625,0.994c2.626,1.296,6.345,2.041,10.203,2.041c0.042,0,0.084-0.004,0.13-0.004
	c0.072,0,0.195-0.412,0.271-0.917l0.482-3.076l0.072-0.48l2.34-14.9c0.076-0.507,0.461-0.865,0.945-0.791
	c0.486,0.079,1.94,0.304,1.94,0.304c0.503,0.077,0.85,0.551,0.771,1.06c-0.224,1.42-0.651,4.146-0.873,5.57
	C25.501,16.664,25.842,17.146,26.339,17.257z M19.499,66.457c3.291,0,5.638-0.777,6.888-1.477c0.445-0.252,0.445-0.805,0.002-1.052
	c-1.248-0.698-3.6-1.476-6.89-1.476c-3.292,0-5.642,0.777-6.894,1.476c-0.443,0.247-0.443,0.8,0.002,1.052
	C13.856,65.68,16.207,66.457,19.499,66.457z M31.337,33.759l0.312-2.396c0.068-0.509-0.245-0.719-0.708-0.509
	c-2.996,1.39-7.015,2.239-11.442,2.239c-4.425,0-8.449-0.85-11.445-2.239c-0.461-0.21-0.773,0-0.708,0.509l0.316,2.396l3.394,25.831
	c0.064,0.505,0.488,0.72,0.958,0.524c2.015-0.854,4.628-1.365,7.486-1.365c2.854,0,5.47,0.512,7.483,1.365
	c0.471,0.195,0.892-0.02,0.961-0.524L31.337,33.759z M32.537,24.852c0.004-0.023,0.004-0.035,0.004-0.039
	c0-0.434-0.771-1.507-2.846-2.534c-1.129-0.559-2.464-1.013-3.929-1.352c-0.497-0.115-0.969,0.218-1.046,0.72l-0.33,2.088
	l-0.696,4.461c-0.081,0.501,0.264,0.857,0.769,0.77c1.977-0.345,3.775-0.898,5.232-1.616c0.678-0.333,1.21-0.674,1.629-0.994
	c0.695-0.536,1.062-1.018,1.174-1.341l0.023-0.073C32.524,24.905,32.533,24.875,32.537,24.852z M25.696,3.406
	c-1.007-0.156-1.95,0.534-2.106,1.542c-0.156,1.007,0.535,1.951,1.542,2.106c1.008,0.156,1.952-0.534,2.107-1.542
	S26.704,3.562,25.696,3.406z"/>
</svg>
